REM MD5 adfb60f043578bb14ef857fd62614800
FILE "Euro Demo 46 (Europe).bin" BINARY
  TRACK 01 MODE2/2352
    INDEX 01 00:00:00
  TRACK 02 AUDIO
    INDEX 00 32:42:19
    INDEX 01 32:44:19
  TRACK 03 AUDIO
    INDEX 00 33:14:08
    INDEX 01 33:16:08
  TRACK 04 AUDIO
    INDEX 00 36:17:45
    INDEX 01 36:19:45
  TRACK 05 AUDIO
    INDEX 00 39:13:62
    INDEX 01 39:15:62
REM LEADOUT 42:17:19
